<?xml version="1.0" standalone="no"?>
<svg width="64" height="64" viewBox="0 0 512 384" version="1.1" xmlns="http://www.w3.org/2000/svg">
  <path d="M207 104c47 -14 76 -62 87 -104h-294c11 42 40 90 87 104c18 -10 38 -16 60 -16s42 6 60 16zM147 328c58 0 106 -48 106 -106s-48 -106 -106 -106s-106 48 -106 106s48 106 106 106zM147 141c34 0 62 23 74 51h-148c12 -28 40 -51 74 -51zM291 64c-13 20 -34 43 -60 53 c11 9 21 23 28 35c13 -5 27 -8 42 -8c22 0 42 6 60 16c47 -14 76 -54 87 -96h-157zM275 248c-8 37 -31 69 -63 87c19 29 52 49 89 49c58 0 106 -48 106 -106s-48 -106 -106 -106c-11 0 -22 2 -32 5c3 8 6 16 7 25c8 -3 16 -4 25 -4c34 0 62 22 74 50h-100z" transform="matrix(1,0,0,-1,0,384)"/>
</svg>