<?xml version="1.0" standalone="no"?>
<svg width="64" height="64" viewBox="0 0 512 384" version="1.1" xmlns="http://www.w3.org/2000/svg">
  <path d="M224 336v0v0zM317 113c11 -4 -11 4 0 0c28 -10 46 -35 46 -65h-28h-250c0 22 9 42 27 55c15 11 31 12 49 16c7 1 24 5 26 13s1 15 1 23c0 3 0 3 -2 5c-4 4 -6 9 -8 14c-2 8 -3 16 -4 24c-9 -2 -10 16 -12 21c-1 4 -7 24 3 21c-3 5 -4 13 -5 19c-2 13 -2 26 3 39 c10 26 37 39 64 38c26 -1 51 -16 59 -42c4 -12 3 -26 1 -39c-1 -5 -2 -11 -4 -15c10 3 4 -20 3 -23c-2 -5 -3 -21 -12 -19c-1 -10 -2 -22 -7 -31c-1 -2 -7 -8 -7 -10v-11c0 -5 0 -10 2 -15s10 -7 14 -8c14 -5 27 -5 41 -10zM115 84c-6 -6 9 10 0 0c-6 -6 -10 -12 -12 -20h4 h238c-4 15 -17 27 -30 33s-28 4 -41 9s-25 9 -28 25c-2 11 -2 22 -2 33c0 2 7 7 8 9c3 5 4 11 5 17c1 5 0 12 4 15c5 4 7 7 9 13c2 8 3 12 -1 19c-3 5 0 8 1 13c3 11 4 24 2 36c-8 37 -62 45 -86 19c-12 -13 -12 -31 -9 -47c1 -6 6 -14 3 -19c-1 -3 -5 -6 -4 -10 c2 -5 2 -11 4 -16c2 -4 4 -6 7 -8s3 -6 3 -9c1 -7 2 -17 6 -23c3 -4 8 -6 8 -11v-21c-1 -8 -2 -18 -8 -24c-7 -6 -18 -10 -27 -12c-11 -3 -23 -3 -33 -7c-8 -3 -15 -8 -21 -14zM112 126c-15 -7 9 4 0 0c-9 -5 -18 -11 -25 -19c-1 -2 -6 -11 -7 -11h-25h-55c0 20 13 34 31 40 c6 2 27 4 30 11c2 5 0 11 0 16c-10 -1 -24 1 -32 7c-2 2 3 9 4 12l3 12c1 9 1 19 1 28c0 16 -1 34 8 48c8 13 23 18 38 18c24 0 43 -13 47 -37c3 -16 1 -32 2 -48c0 -8 2 -16 5 -24c1 -2 5 -7 3 -9l-6 -3c-5 -2 -11 -3 -17 -4c-1 0 -8 0 -9 -1s0 -9 0 -11c0 -4 1 -6 5 -7 c6 -2 19 -3 23 -8c2 -3 1 -5 -2 -5c-8 -1 -15 -1 -22 -5zM71 112c6 10 16 18 26 24c-9 9 -5 26 -4 37c0 2 0 5 2 5h8c6 0 11 1 17 2c-7 23 0 47 -5 70c-3 16 -15 23 -31 23c-17 0 -27 -9 -30 -25c-4 -22 3 -46 -4 -68c9 -1 17 -2 26 -2c1 0 1 -28 1 -29 c-1 -12 -8 -18 -19 -22c-12 -4 -29 -3 -36 -15h49zM368 96c-2 8 -10 14 -16 19c-8 6 -18 13 -28 15c-3 1 -16 -1 -13 5c2 4 9 5 13 6s15 2 16 7c0 1 1 14 0 14c-6 0 -12 1 -18 2c-4 1 -7 2 -11 4c-6 3 -2 6 0 11c14 32 -10 88 32 105c15 6 34 5 48 -3c15 -9 20 -27 20 -44 c0 -20 -4 -44 7 -62c2 -3 4 -4 0 -6c-2 -1 -4 -1 -6 -2l-12 -3s-9 -1 -13 -1c0 -4 -2 -13 1 -17c6 -7 21 -7 29 -10c18 -6 31 -20 31 -40h-80zM367 123c4 -4 -5 5 0 0s8 -11 15 -11h16h28c-7 12 -26 11 -38 16c-11 4 -16 12 -17 24c0 2 -1 27 1 27c9 0 18 0 26 1 c-7 23 1 47 -4 70c-3 15 -15 23 -30 23c-17 0 -28 -8 -31 -25c-4 -23 2 -46 -5 -68c6 -2 12 -2 18 -2s8 1 9 -5c1 -11 5 -28 -4 -37c6 -4 11 -8 16 -13z" transform="matrix(1,0,0,-1,0,384)"/>
</svg>